REM DIRINDEX 1\3,1\4,1\5,1\6,1\2\7,1\2\8,1\2\9,1\10
REM DIRNAME folder01,folder02,folder03,folder04,folder05,folder06,folder07,folder08,folder09,folder10
TITLE ""
FILE "1-47 Level 3-409-417.mp3" MP3
  TRACK 01 AUDIO
    TITLE "0:"
    INDEX 01 00:00:00
  TRACK 02 AUDIO
    TITLE "7:cjc056_1426"
    INDEX 01 00:00:05
  TRACK 03 AUDIO
    TITLE "0:"
    INDEX 01 00:01:05
  TRACK 04 AUDIO
    TITLE "8:cjc056_1427"
    INDEX 01 00:01:13
  TRACK 05 AUDIO
    TITLE "0:"
    INDEX 01 00:02:18
  TRACK 06 AUDIO
    TITLE "9:cjc056_1428"
    INDEX 01 00:02:32
  TRACK 07 AUDIO
    TITLE "0:"
    INDEX 01 00:04:58
  TRACK 08 AUDIO
    TITLE "8:cjc056_1429"
    INDEX 01 00:05:09
  TRACK 09 AUDIO
    TITLE "0:"
    INDEX 01 00:06:53
  TRACK 10 AUDIO
    TITLE "9:cjc056_1430"
    INDEX 01 00:06:67
  TRACK 11 AUDIO
    TITLE "0:"
    INDEX 01 00:08:42
  TRACK 12 AUDIO
    TITLE "7:cjc056_1431"
    INDEX 01 00:09:16
  TRACK 13 AUDIO
    TITLE "0:"
    INDEX 01 00:10:19
  TRACK 14 AUDIO
    TITLE "8:cjc056_1432"
    INDEX 01 00:10:33
  TRACK 15 AUDIO
    TITLE "0:"
    INDEX 01 00:11:39
  TRACK 16 AUDIO
    TITLE "9:cjc056_1433"
    INDEX 01 00:11:48
  TRACK 17 AUDIO
    TITLE "0:"
    INDEX 01 00:13:55
  TRACK 18 AUDIO
    TITLE "7:cjc056_1434"
    INDEX 01 00:14:31
  TRACK 19 AUDIO
    TITLE "0:"
    INDEX 01 00:15:36
  TRACK 20 AUDIO
    TITLE "8:cjc056_1435"
    INDEX 01 00:15:52
  TRACK 21 AUDIO
    TITLE "0:"
    INDEX 01 00:17:02
  TRACK 22 AUDIO
    TITLE "9:cjc056_1436"
    INDEX 01 00:17:14
  TRACK 23 AUDIO
    TITLE "0:"
    INDEX 01 00:18:56
  TRACK 24 AUDIO
    TITLE "7:cjc056_1437"
    INDEX 01 00:19:34
  TRACK 25 AUDIO
    TITLE "0:"
    INDEX 01 00:20:53
  TRACK 26 AUDIO
    TITLE "8:cjc056_1438"
    INDEX 01 00:20:63
  TRACK 27 AUDIO
    TITLE "0:"
    INDEX 01 00:22:17
  TRACK 28 AUDIO
    TITLE "9:cjc056_1439"
    INDEX 01 00:22:32
  TRACK 29 AUDIO
    TITLE "0:"
    INDEX 01 00:24:61
  TRACK 30 AUDIO
    TITLE "7:cjc056_1440"
    INDEX 01 00:25:37
  TRACK 31 AUDIO
    TITLE "0:"
    INDEX 01 00:26:54
  TRACK 32 AUDIO
    TITLE "8:cjc056_1441"
    INDEX 01 00:26:62
  TRACK 33 AUDIO
    TITLE "0:"
    INDEX 01 00:28:17
  TRACK 34 AUDIO
    TITLE "9:cjc056_1442"
    INDEX 01 00:28:31
  TRACK 35 AUDIO
    TITLE "0:"
    INDEX 01 00:30:01
  TRACK 36 AUDIO
    TITLE "7:cjc056_1443"
    INDEX 01 00:30:54
  TRACK 37 AUDIO
    TITLE "0:"
    INDEX 01 00:31:57
  TRACK 38 AUDIO
    TITLE "8:cjc056_1444"
    INDEX 01 00:31:69
  TRACK 39 AUDIO
    TITLE "0:"
    INDEX 01 00:32:62
  TRACK 40 AUDIO
    TITLE "9:cjc056_1445"
    INDEX 01 00:33:01
  TRACK 41 AUDIO
    TITLE "0:"
    INDEX 01 00:36:56
  TRACK 42 AUDIO
    TITLE "7:cjc056_1446"
    INDEX 01 00:37:28
  TRACK 43 AUDIO
    TITLE "0:"
    INDEX 01 00:38:30
  TRACK 44 AUDIO
    TITLE "8:cjc056_1447"
    INDEX 01 00:38:43
  TRACK 45 AUDIO
    TITLE "0:"
    INDEX 01 00:39:33
  TRACK 46 AUDIO
    TITLE "9:cjc056_1448"
    INDEX 01 00:39:47
  TRACK 47 AUDIO
    TITLE "0:"
    INDEX 01 00:41:18
  TRACK 48 AUDIO
    TITLE "7:cjc056_1449"
    INDEX 01 00:41:69
  TRACK 49 AUDIO
    TITLE "0:"
    INDEX 01 00:42:59
  TRACK 50 AUDIO
    TITLE "8:cjc056_1450"
    INDEX 01 00:42:70
  TRACK 51 AUDIO
    TITLE "0:"
    INDEX 01 00:44:01
  TRACK 52 AUDIO
    TITLE "9:cjc056_1451"
    INDEX 01 00:44:12
  TRACK 53 AUDIO
    TITLE "0:"
    INDEX 01 00:45:59
  TRACK 54 AUDIO
    TITLE "7:cjc056_1452"
    INDEX 01 00:46:29
  TRACK 55 AUDIO
    TITLE "0:"
    INDEX 01 00:47:42
  TRACK 56 AUDIO
    TITLE "8:cjc056_1453"
    INDEX 01 00:47:56
  TRACK 57 AUDIO
    TITLE "0:"
    INDEX 01 00:48:61
  TRACK 58 AUDIO
    TITLE "9:cjc056_1454"
    INDEX 01 00:49:02
  TRACK 59 AUDIO
    TITLE "0:"
    INDEX 01 00:51:07
